<svg xmlns="http://www.w3.org/2000/svg" viewBox="0 0 512 512" role="img" aria-label="QuranAtlas">
  <defs>
    <linearGradient id="qa-field" x1="0" y1="0" x2="1" y2="1">
      <stop offset="0" stop-color="#0c756d"/>
      <stop offset="0.55" stop-color="#0f8b7d"/>
      <stop offset="1" stop-color="#0a5a68"/>
    </linearGradient>
    <linearGradient id="qa-gold" x1="0.16" y1="0.06" x2="0.86" y2="0.94">
      <stop offset="0" stop-color="#fff5c7"/>
      <stop offset="0.36" stop-color="#f1c15d"/>
      <stop offset="0.7" stop-color="#a56420"/>
      <stop offset="1" stop-color="#ffe6a0"/>
    </linearGradient>
    <linearGradient id="qa-ivory" x1="0" y1="0" x2="1" y2="1">
      <stop offset="0" stop-color="#fff9df"/>
      <stop offset="1" stop-color="#e4b65f"/>
    </linearGradient>
    <pattern id="qa-mosaic" width="64" height="64" patternUnits="userSpaceOnUse">
      <path d="M32 4 44 20 60 32 44 44 32 60 20 44 4 32 20 20Z" fill="none" stroke="#3ee6dc" stroke-opacity="0.18" stroke-width="2"/>
      <path d="M32 12 52 32 32 52 12 32Z" fill="none" stroke="#f6d384" stroke-opacity="0.16" stroke-width="2"/>
      <circle cx="32" cy="32" r="4" fill="#fff2bd" fill-opacity="0.12"/>
    </pattern>
    <filter id="qa-shadow" x="-20%" y="-20%" width="140%" height="140%">
      <feDropShadow dx="0" dy="11" stdDeviation="11" flood-color="#064442" flood-opacity="0.34"/>
    </filter>
  </defs>

  <rect width="512" height="512" rx="88" fill="url(#qa-field)"/>
  <rect width="512" height="512" rx="88" fill="url(#qa-mosaic)"/>
  <rect x="24" y="24" width="464" height="464" rx="72" fill="none" stroke="#f5cf78" stroke-width="7"/>
  <rect x="42" y="42" width="428" height="428" rx="58" fill="none" stroke="#59e7dd" stroke-opacity="0.42" stroke-width="3"/>

  <g filter="url(#qa-shadow)">
    <path
      d="M254 102c-91 0-158 63-158 151 0 89 66 151 158 151 25 0 49-5 70-15l53 58 55-34-57-60c24-27 37-61 37-100 0-88-67-151-158-151Zm0 67c52 0 88 35 88 84 0 50-36 85-88 85-51 0-87-35-87-85 0-49 36-84 87-84Z"
      fill="#075653"
      opacity="0.62"
    />
    <path
      d="M254 91c-98 0-171 68-171 162 0 95 72 162 171 162 28 0 54-6 78-17l59 63 56-39-62-65c25-28 39-64 39-104 0-94-72-162-170-162Zm0 64c60 0 102 41 102 98 0 58-42 99-102 99-59 0-101-41-101-99 0-57 42-98 101-98Z"
      fill="url(#qa-gold)"
    />
    <path
      d="M254 121c-80 0-139 55-139 132s59 132 139 132c28 0 53-7 74-19l54 57 25-18-55-58c27-24 42-57 42-94 0-77-60-132-140-132Zm0 34c60 0 102 41 102 98 0 58-42 99-102 99-59 0-101-41-101-99 0-57 42-98 101-98Z"
      fill="none"
      stroke="url(#qa-ivory)"
      stroke-linejoin="round"
      stroke-width="10"
      opacity="0.82"
    />
    <path
      d="M330 363c34 25 63 52 87 82"
      fill="none"
      stroke="#3ee6dc"
      stroke-linecap="round"
      stroke-width="8"
      opacity="0.88"
    />
  </g>
</svg>
